<svg width="120" height="20" viewBox="0 0 120 20" xmlns="http://www.w3.org/2000/svg">
  <!-- Flower 1 -->
  <circle cx="5" cy="5" r="2.5" fill="#ff69b4"/>
  <circle cx="5" cy="3" r="1.3" fill="#ffb6c1"/>
  <circle cx="7" cy="5" r="1.3" fill="#ffb6c1"/>
  <circle cx="5" cy="7" r="1.3" fill="#ffb6c1"/>
  <circle cx="3" cy="5" r="1.3" fill="#ffb6c1"/>
  <line x1="5" y1="7" x2="5" y2="20" stroke="#228B22" stroke-width="1"/>

  <!-- Flower 2 -->
  <circle cx="15" cy="5" r="2" fill="#daa520"/>
  <ellipse cx="15" cy="3.5" rx="1.6" ry="2.5" fill="#ffd700"/>
  <ellipse cx="16.5" cy="5" rx="2.5" ry="1.6" fill="#ffd700"/>
  <ellipse cx="15" cy="6.5" rx="1.6" ry="2.5" fill="#ffd700"/>
  <ellipse cx="13.5" cy="5" rx="2.5" ry="1.6" fill="#ffd700"/>
  <line x1="15" y1="6.5" x2="15" y2="20" stroke="#228B22" stroke-width="1"/>

  <!-- Flower 3 -->
  <circle cx="25" cy="5" r="2.3" fill="#32cd32"/>
  <path d="M25 2.5 Q26.25 3.75 25 5 Q23.75 3.75 25 2.5 Z" fill="#228b22"/>
  <path d="M27.5 5 Q26.25 6.25 25 5 Q26.25 3.75 27.5 5 Z" fill="#228b22"/>
  <path d="M25 7.5 Q23.75 6.25 25 5 Q26.25 6.25 25 7.5 Z" fill="#228b22"/>
  <path d="M22.5 5 Q23.75 3.75 25 5 Q23.75 6.25 22.5 5 Z" fill="#228b22"/>
  <line x1="25" y1="6.75" x2="25" y2="20" stroke="#228B22" stroke-width="1"/>

  <!-- Flower 4 -->
  <circle cx="35" cy="5" r="2.5" fill="#808080"/>
  <circle cx="35" cy="3" r="1.3" fill="#a9a9a9"/>
  <circle cx="37" cy="5" r="1.3" fill="#a9a9a9"/>
  <circle cx="35" cy="7" r="1.3" fill="#a9a9a9"/>
  <circle cx="33" cy="5" r="1.3" fill="#a9a9a9"/>
  <line x1="35" y1="7" x2="35" y2="20" stroke="#696969" stroke-width="1"/>

  <!-- Flower 5 -->
  <circle cx="45" cy="5" r="2" fill="#ff69b4"/>
  <circle cx="45" cy="3" r="1.3" fill="#ffb6c1"/>
  <circle cx="47" cy="5" r="1.3" fill="#ffb6c1"/>
  <circle cx="45" cy="7" r="1.3" fill="#ffb6c1"/>
  <circle cx="43" cy="5" r="1.3" fill="#ffb6c1"/>
  <line x1="45" y1="7" x2="45" y2="20" stroke="#228B22" stroke-width="1"/>

  <!-- Flower 6 -->
  <circle cx="55" cy="5" r="2.3" fill="#daa520"/>
  <ellipse cx="55" cy="3.5" rx="1.6" ry="2.5" fill="#ffd700"/>
  <ellipse cx="56.5" cy="5" rx="2.5" ry="1.6" fill="#ffd700"/>
  <ellipse cx="55" cy="6.5" rx="1.6" ry="2.5" fill="#ffd700"/>
  <ellipse cx="53.5" cy="5" rx="2.5" ry="1.6" fill="#ffd700"/>
  <line x1="55" y1="6.5" x2="55" y2="20" stroke="#228B22" stroke-width="1"/>

  <!-- Flower 7 -->
  <circle cx="65" cy="5" r="2.3" fill="#32cd32"/>
  <path d="M65 2.5 Q66.25 3.75 65 5 Q63.75 3.75 65 2.5 Z" fill="#228b22"/>
  <path d="M67.5 5 Q66.25 6.25 65 5 Q66.25 3.75 67.5 5 Z" fill="#228b22"/>
  <path d="M65 7.5 Q63.75 6.25 65 5 Q66.25 6.25 65 7.5 Z" fill="#228b22"/>
  <path d="M62.5 5 Q63.75 3.75 65 5 Q63.75 6.25 62.5 5 Z" fill="#228b22"/>
  <line x1="65" y1="6.75" x2="65" y2="20" stroke="#228B22" stroke-width="1"/>

  <!-- Flower 8 -->
  <circle cx="75" cy="5" r="2.5" fill="#ff69b4"/>
  <circle cx="75" cy="3" r="1.3" fill="#ffb6c1"/>
  <circle cx="77" cy="5" r="1.3" fill="#ffb6c1"/>
  <circle cx="75" cy="7" r="1.3" fill="#ffb6c1"/>
  <circle cx="73" cy="5" r="1.3" fill="#ffb6c1"/>
  <line x1="75" y1="7" x2="75" y2="20" stroke="#228B22" stroke-width="1"/>

  <!-- Flower 9 -->
  <circle cx="85" cy="5" r="2" fill="#daa520"/>
  <ellipse cx="85" cy="3.5" rx="1.6" ry="2.5" fill="#ffd700"/>
  <ellipse cx="86.5" cy="5" rx="2.5" ry="1.6" fill="#ffd700"/>
  <ellipse cx="85" cy="6.5" rx="1.6" ry="2.5" fill="#ffd700"/>
  <ellipse cx="83.5" cy="5" rx="2.5" ry="1.6" fill="#ffd700"/>
  <line x1="85" y1="6.5" x2="85" y2="20" stroke="#228B22" stroke-width="1"/>

  <!-- Flower 10 -->
  <circle cx="95" cy="5" r="2.5" fill="#808080"/>
  <circle cx="95" cy="3" r="1.3" fill="#a9a9a9"/>
  <circle cx="97" cy="5" r="1.3" fill="#a9a9a9"/>
  <circle cx="95" cy="7" r="1.3" fill="#a9a9a9"/>
  <circle cx="93" cy="5" r="1.3" fill="#a9a9a9"/>
  <line x1="95" y1="7" x2="95" y2="20" stroke="#696969" stroke-width="1"/>

  <!-- Flower 11 -->
  <circle cx="105" cy="5" r="2.3" fill="#32cd32"/>
  <path d="M105 2.5 Q106.25 3.75 105 5 Q103.75 3.75 105 2.5 Z" fill="#228b22"/>
  <path d="M107.5 5 Q106.25 6.25 105 5 Q106.25 3.75 107.5 5 Z" fill="#228b22"/>
  <path d="M105 7.5 Q103.75 6.25 105 5 Q106.25 6.25 105 7.5 Z" fill="#228b22"/>
  <path d="M102.5 5 Q103.75 3.75 105 5 Q103.75 6.25 102.5 5 Z" fill="#228b22"/>
  <line x1="105" y1="6.75" x2="105" y2="20" stroke="#228B22" stroke-width="1"/>

  <!-- Flower 12 -->
  <circle cx="115" cy="5" r="2" fill="#ff69b4"/>
  <circle cx="115" cy="3" r="1.3" fill="#ffb6c1"/>
  <circle cx="117" cy="5" r="1.3" fill="#ffb6c1"/>
  <circle cx="115" cy="7" r="1.3" fill="#ffb6c1"/>
  <circle cx="113" cy="5" r="1.3" fill="#ffb6c1"/>
  <line x1="115" y1="7" x2="115" y2="20" stroke="#228B22" stroke-width="1"/>
</svg>