<?xml version="1.0" encoding="UTF-8" standalone="no"?>
<svg
   width="120"
   height="20"
   viewBox="0 0 120 20"
   version="1.1"
   id="svg48"
   sodipodi:docname="flowers-row-2.svg"
   inkscape:version="1.4.3 (0d15f75, 2025-12-25)"
   xmlns:inkscape="http://www.inkscape.org/namespaces/inkscape"
   xmlns:sodipodi="http://sodipodi.sourceforge.net/DTD/sodipodi-0.dtd"
   xmlns="http://www.w3.org/2000/svg"
   xmlns:svg="http://www.w3.org/2000/svg">
  <defs
     id="defs48" />
  <sodipodi:namedview
     id="namedview48"
     pagecolor="#ffffff"
     bordercolor="#000000"
     borderopacity="0.25"
     inkscape:showpageshadow="2"
     inkscape:pageopacity="0.0"
     inkscape:pagecheckerboard="0"
     inkscape:deskcolor="#d1d1d1"
     inkscape:zoom="8"
     inkscape:cx="106.3125"
     inkscape:cy="10.125"
     inkscape:window-width="1920"
     inkscape:window-height="956"
     inkscape:window-x="1912"
     inkscape:window-y="45"
     inkscape:window-maximized="1"
     inkscape:current-layer="svg48" />
  <!-- Flower 1 -->
  <circle
     cx="5"
     cy="5"
     r="2.5"
     fill="#ff69b4"
     id="circle1" />
  <circle
     cx="5"
     cy="3"
     r="1.3"
     fill="#ffb6c1"
     id="circle2" />
  <circle
     cx="7"
     cy="5"
     r="1.3"
     fill="#ffb6c1"
     id="circle3" />
  <circle
     cx="5"
     cy="7"
     r="1.3"
     fill="#ffb6c1"
     id="circle4" />
  <circle
     cx="3"
     cy="5"
     r="1.3"
     fill="#ffb6c1"
     id="circle5" />
  <line
     x1="5"
     y1="7"
     x2="5"
     y2="20"
     stroke="#228B22"
     stroke-width="1"
     id="line5" />
  <!-- Flower 2 -->
  <circle
     cx="15"
     cy="5"
     r="2"
     fill="#daa520"
     id="circle6" />
  <ellipse
     cx="15"
     cy="3.5"
     rx="1.6"
     ry="2.5"
     fill="#ffd700"
     id="ellipse6" />
  <ellipse
     cx="16.5"
     cy="5"
     rx="2.5"
     ry="1.6"
     fill="#ffd700"
     id="ellipse7" />
  <ellipse
     cx="15"
     cy="6.5"
     rx="1.6"
     ry="2.5"
     fill="#ffd700"
     id="ellipse8" />
  <ellipse
     cx="13.5"
     cy="5"
     rx="2.5"
     ry="1.6"
     fill="#ffd700"
     id="ellipse9" />
  <line
     x1="15"
     y1="6.5"
     x2="15"
     y2="20"
     stroke="#228B22"
     stroke-width="1"
     id="line9" />
  <!-- Flower 3 -->
  <circle
     cx="25"
     cy="5"
     r="2.3"
     fill="#32cd32"
     id="circle9" />
  <path
     d="M25 2.5 Q26.25 3.75 25 5 Q23.75 3.75 25 2.5 Z"
     fill="#228b22"
     id="path9" />
  <path
     d="M27.5 5 Q26.25 6.25 25 5 Q26.25 3.75 27.5 5 Z"
     fill="#228b22"
     id="path10" />
  <path
     d="M25 7.5 Q23.75 6.25 25 5 Q26.25 6.25 25 7.5 Z"
     fill="#228b22"
     id="path11" />
  <path
     d="M22.5 5 Q23.75 3.75 25 5 Q23.75 6.25 22.5 5 Z"
     fill="#228b22"
     id="path12" />
  <line
     x1="25"
     y1="6.75"
     x2="25"
     y2="20"
     stroke="#228B22"
     stroke-width="1"
     id="line12" />
  <!-- Flower 4 -->
  <circle
     cx="35"
     cy="5"
     r="2.5"
     fill="#808080"
     id="circle12" />
  <circle
     cx="35"
     cy="3"
     r="1.3"
     fill="#a9a9a9"
     id="circle13" />
  <circle
     cx="37"
     cy="5"
     r="1.3"
     fill="#a9a9a9"
     id="circle14" />
  <circle
     cx="35"
     cy="7"
     r="1.3"
     fill="#a9a9a9"
     id="circle15" />
  <circle
     cx="33"
     cy="5"
     r="1.3"
     fill="#a9a9a9"
     id="circle16" />
  <line
     x1="35"
     y1="7"
     x2="35"
     y2="20"
     stroke="#696969"
     stroke-width="1"
     id="line16" />
  <!-- Flower 5 -->
  <circle
     cx="45"
     cy="5"
     r="2"
     fill="#ff69b4"
     id="circle17" />
  <circle
     cx="45"
     cy="3"
     r="1.3"
     fill="#ffb6c1"
     id="circle18" />
  <circle
     cx="47"
     cy="5"
     r="1.3"
     fill="#ffb6c1"
     id="circle19" />
  <circle
     cx="45"
     cy="7"
     r="1.3"
     fill="#ffb6c1"
     id="circle20" />
  <circle
     cx="43"
     cy="5"
     r="1.3"
     fill="#ffb6c1"
     id="circle21" />
  <line
     x1="45"
     y1="7"
     x2="45"
     y2="20"
     stroke="#228B22"
     stroke-width="1"
     id="line21" />
  <!-- Flower 6 -->
  <circle
     cx="55"
     cy="5"
     r="2.3"
     fill="#daa520"
     id="circle22" />
  <ellipse
     cx="55"
     cy="3.5"
     rx="1.6"
     ry="2.5"
     fill="#ffd700"
     id="ellipse22" />
  <ellipse
     cx="56.5"
     cy="5"
     rx="2.5"
     ry="1.6"
     fill="#ffd700"
     id="ellipse23" />
  <ellipse
     cx="55"
     cy="6.5"
     rx="1.6"
     ry="2.5"
     fill="#ffd700"
     id="ellipse24" />
  <ellipse
     cx="53.5"
     cy="5"
     rx="2.5"
     ry="1.6"
     fill="#ffd700"
     id="ellipse25" />
  <line
     x1="55"
     y1="6.5"
     x2="55"
     y2="20"
     stroke="#228B22"
     stroke-width="1"
     id="line25" />
  <!-- Flower 7 -->
  <circle
     cx="65"
     cy="5"
     r="2.3"
     fill="#32cd32"
     id="circle25" />
  <path
     d="M65 2.5 Q66.25 3.75 65 5 Q63.75 3.75 65 2.5 Z"
     fill="#228b22"
     id="path25" />
  <path
     d="M67.5 5 Q66.25 6.25 65 5 Q66.25 3.75 67.5 5 Z"
     fill="#228b22"
     id="path26" />
  <path
     d="M65 7.5 Q63.75 6.25 65 5 Q66.25 6.25 65 7.5 Z"
     fill="#228b22"
     id="path27" />
  <path
     d="M62.5 5 Q63.75 3.75 65 5 Q63.75 6.25 62.5 5 Z"
     fill="#228b22"
     id="path28" />
  <line
     x1="65"
     y1="6.75"
     x2="65"
     y2="20"
     stroke="#228B22"
     stroke-width="1"
     id="line28" />
  <!-- Flower 8 -->
  <circle
     cx="75"
     cy="5"
     r="2.5"
     fill="#ff69b4"
     id="circle28" />
  <circle
     cx="75"
     cy="3"
     r="1.3"
     fill="#ffb6c1"
     id="circle29" />
  <circle
     cx="77"
     cy="5"
     r="1.3"
     fill="#ffb6c1"
     id="circle30" />
  <circle
     cx="75"
     cy="7"
     r="1.3"
     fill="#ffb6c1"
     id="circle31" />
  <circle
     cx="73"
     cy="5"
     r="1.3"
     fill="#ffb6c1"
     id="circle32" />
  <line
     x1="75"
     y1="7"
     x2="75"
     y2="20"
     stroke="#228B22"
     stroke-width="1"
     id="line32" />
  <!-- Flower 9 -->
  <circle
     cx="85"
     cy="5"
     r="2"
     fill="#daa520"
     id="circle33" />
  <ellipse
     cx="85"
     cy="3.5"
     rx="1.6"
     ry="2.5"
     fill="#ffd700"
     id="ellipse33" />
  <ellipse
     cx="86.5"
     cy="5"
     rx="2.5"
     ry="1.6"
     fill="#ffd700"
     id="ellipse34" />
  <ellipse
     cx="85"
     cy="6.5"
     rx="1.6"
     ry="2.5"
     fill="#ffd700"
     id="ellipse35" />
  <ellipse
     cx="83.5"
     cy="5"
     rx="2.5"
     ry="1.6"
     fill="#ffd700"
     id="ellipse36" />
  <line
     x1="85"
     y1="6.5"
     x2="85"
     y2="20"
     stroke="#228B22"
     stroke-width="1"
     id="line36" />
  <!-- Flower 10 -->
  <circle
     cx="95"
     cy="5"
     r="2.5"
     fill="#808080"
     id="circle36" />
  <circle
     cx="95"
     cy="3"
     r="1.3"
     fill="#a9a9a9"
     id="circle37" />
  <circle
     cx="97"
     cy="5"
     r="1.3"
     fill="#a9a9a9"
     id="circle38" />
  <circle
     cx="95"
     cy="7"
     r="1.3"
     fill="#a9a9a9"
     id="circle39" />
  <circle
     cx="93"
     cy="5"
     r="1.3"
     fill="#a9a9a9"
     id="circle40" />
  <line
     x1="95"
     y1="7"
     x2="95"
     y2="20"
     stroke="#696969"
     stroke-width="1"
     id="line40" />
  <!-- Flower 11 -->
  <circle
     cx="105"
     cy="5"
     r="2.3"
     fill="#32cd32"
     id="circle41" />
  <path
     d="M105 2.5 Q106.25 3.75 105 5 Q103.75 3.75 105 2.5 Z"
     fill="#228b22"
     id="path41" />
  <path
     d="M107.5 5 Q106.25 6.25 105 5 Q106.25 3.75 107.5 5 Z"
     fill="#228b22"
     id="path42" />
  <path
     d="M105 7.5 Q103.75 6.25 105 5 Q106.25 6.25 105 7.5 Z"
     fill="#228b22"
     id="path43" />
  <path
     d="M102.5 5 Q103.75 3.75 105 5 Q103.75 6.25 102.5 5 Z"
     fill="#228b22"
     id="path44" />
  <line
     x1="105"
     y1="6.75"
     x2="105"
     y2="20"
     stroke="#228B22"
     stroke-width="1"
     id="line44" />
  <!-- Flower 12 -->
  <circle
     cx="115"
     cy="5"
     r="2"
     fill="#ff69b4"
     id="circle44" />
  <circle
     cx="115"
     cy="3"
     r="1.3"
     fill="#ffb6c1"
     id="circle45" />
  <circle
     cx="117"
     cy="5"
     r="1.3"
     fill="#ffb6c1"
     id="circle46" />
  <circle
     cx="115"
     cy="7"
     r="1.3"
     fill="#ffb6c1"
     id="circle47" />
  <circle
     cx="113"
     cy="5"
     r="1.3"
     fill="#ffb6c1"
     id="circle48" />
  <line
     x1="115"
     y1="7"
     x2="115"
     y2="20"
     stroke="#228B22"
     stroke-width="1"
     id="line48" />
  <path
     style="fill:#000000"
     d="M 4.7297297,7.2297297 Z"
     id="path48" />
  <path
     style="fill:#ffb6c1;fill-opacity:1"
     d="m 4.3320312,7.9257812 c 0.081659,0.01907 0.165973,0.034394 0.25,0.039063 0.011701,6.501e-4 0.023496,-0.00117 0.035156,0 0.014486,0.00145 0.028483,0.00636 0.042969,0.00781 0.047572,0.00476 0.097158,-0.00127 0.1445313,-0.00391 0.024701,-0.00137 0.049513,0.0013 0.074219,0 0.031503,-0.00166 0.062313,-0.00975 0.09375,-0.011719 0.073744,-0.00461 -0.016206,0.00792 0.070312,-0.00781 0.039832,-0.00724 0.080685,-0.012739 0.1210938,-0.015625 0.029783,-0.00213 0.060391,-0.00127 0.089844,-0.00781 0.034606,-0.00769 0.067891,-0.020728 0.1015625,-0.03125 0.027374,-0.00855 0.055356,-0.00886 0.082031,-0.019531 0.025014,-0.010006 0.046759,-0.02638 0.070312,-0.039063 0.010254,-0.00552 0.02156,-0.00916 0.03125,-0.015625 0.00613,-0.00409 0.00987,-0.011024 0.015625,-0.015625 0.00733,-0.00587 0.016171,-0.00968 0.023437,-0.015625 0.00713,-0.00583 0.011989,-0.014251 0.019531,-0.019531 0.00574,-0.00402 0.013922,-0.00361 0.019531,-0.00781 0.011877,-0.00891 0.016846,-0.024659 0.027344,-0.035156 0.018694,-0.018694 0.018421,-0.00437 0.03125,-0.035156 0.00305,-0.00731 0.00213,-0.01572 0.00391,-0.023437 0.00714,-0.030933 0.013968,-0.063447 0.023437,-0.09375 0.00332,-0.010619 0.00917,-0.020421 0.011719,-0.03125 0.011733,-0.049866 0.00784,-0.1019084 0.011719,-0.1523437 0.00363,-0.047211 0.0076,-0.090474 -0.00781,-0.1367188 C 5.6689032,7.1043657 5.5258877,6.9761234 5.390625,6.9023437 5.384465,6.8989837 5.377249,6.8978937 5.371094,6.8945337 5.362854,6.8900337 5.356055,6.8831077 5.347657,6.8789087 5.327756,6.8689587 5.306394,6.8621077 5.285157,6.8554717 5.249461,6.8443167 5.212025,6.8371887 5.175782,6.8281277 5.159216,6.8239877 5.133732,6.8151147 5.117188,6.8125027 c -0.039884,-0.0063 -0.080882,-0.00391 -0.1210938,-0.00391 -0.037172,0 -0.076368,-0.00336 -0.1132812,0 -0.012555,0.00114 -0.060706,0.013091 -0.074219,0.015625 -0.00905,0.0017 -0.018412,0.00167 -0.027344,0.00391 -0.023733,0.00593 -0.043545,0.022541 -0.066406,0.03125 -0.011218,0.00427 -0.023639,0.00443 -0.035156,0.00781 -0.048037,0.014128 -0.096562,0.034868 -0.140625,0.058594 -0.015927,0.00858 -0.030407,0.019858 -0.046875,0.027344 -0.0075,0.00341 -0.016208,0.00387 -0.023437,0.00781 -0.028537,0.015565 -0.044541,0.045169 -0.0625,0.070312 -0.00535,0.00749 -0.013879,0.012264 -0.019531,0.019531 -0.00576,0.00741 -0.00976,0.016106 -0.015625,0.023437 -0.0046,0.00575 -0.011835,0.00931 -0.015625,0.015625 -0.00424,0.00706 -0.00391,0.016187 -0.00781,0.023437 -0.00531,0.00986 -0.013887,0.017669 -0.019531,0.027344 -0.015483,0.026542 -0.020582,0.060541 -0.027344,0.089844 -0.00713,0.030908 -0.016008,0.062041 -0.019531,0.09375 -5.752e-4,0.00518 8.562e-4,0.010488 0,0.015625 -0.00244,0.014644 -0.00962,0.028272 -0.011719,0.042969 -0.00529,0.037001 -0.0083,0.079821 -0.00391,0.1171875 0.0014,0.011922 0.00623,0.023257 0.00781,0.035156 0.00224,0.016828 0.0027,0.033847 0.00391,0.050781 6.494e-4,0.00909 -0.0012,0.018309 0,0.027344 0.00313,0.02344 0.012264,0.046784 0.015625,0.070312 0.00237,0.0166 -0.00208,0.034135 0,0.050781 0.00231,0.018496 0.0099,0.037525 0.015625,0.054687 0.00195,0.00586 -0.00195,0.013672 0,0.019531 0.00743,0.022283 -0.00146,0.080178 0.00391,0.089844 0.00544,0.00979 0.013021,0.018229 0.019531,0.027344 z"
     id="path63" />
  <path
     style="fill:#ffb6c1;fill-opacity:1"
     d="M 4.5273437,6.4648437 4.4257812,7.8125"
     id="path64" />
  <path
     style="fill:#ffb6c1;fill-opacity:1"
     d="m 4.3984375,7.8632812 c 0.046106,0.021834 0.095002,0.014499 0.1445312,0.015625 0.081801,0.00186 0.1642033,0.012239 0.2460938,0.00781 0.064497,-0.00349 0.1313981,-0.013969 0.1953125,-0.023437 0.014401,-0.00213 0.028471,-0.00649 0.042969,-0.00781 0.039827,-0.00362 0.081312,2.814e-4 0.1210938,-0.00391 0.011939,-0.00126 0.023315,-0.00584 0.035156,-0.00781 0.032996,-0.0055 0.06489,-6.297e-4 0.097656,-0.00391 0.013213,-0.00132 0.025838,-0.00661 0.039063,-0.00781 0.058034,-0.00528 0.1178833,0.00643 0.1757812,0 0.033605,-0.00373 0.063916,-0.00781 0.097656,-0.00781 0.00521,0 0.013296,-0.00466 0.015625,0 0.00116,0.00233 -0.00156,0.00573 0,0.00781 0.00282,0.00376 0.00879,0.00415 0.011719,0.00781 0.00699,0.00874 0.024471,0.058822 0.027344,0.070312 0.0083,0.033212 0.015159,0.091241 0.00391,0.1250001 -0.00124,0.00371 0.00124,0.00801 0,0.011719 -0.00116,0.00349 -0.00617,0.00452 -0.00781,0.00781 -0.00753,0.015063 -8.064e-4,0.012794 -0.011719,0.027344 -0.00494,0.00659 -0.00566,0.00189 -0.011719,0.00391 -0.00552,0.00184 -0.00991,0.00667 -0.015625,0.00781 -0.00383,7.661e-4 -0.00793,-9.474e-4 -0.011719,0 -0.00179,4.466e-4 -0.0021,0.00355 -0.00391,0.00391 -0.01735,0.00347 -0.037539,-0.00429 -0.054687,0 -0.00282,7.061e-4 -0.00499,0.0032 -0.00781,0.00391 -0.00253,6.316e-4 -0.00548,-0.00116 -0.00781,0 -0.00329,0.00165 -0.00452,0.00617 -0.00781,0.00781 -0.00233,0.00116 -0.00529,-6.316e-4 -0.00781,0 -0.012233,0.00306 -0.023255,0.011658 -0.035156,0.015625 -0.00371,0.00124 -0.00789,-7.661e-4 -0.011719,0 -0.010242,0.00205 -0.017657,0.0093 -0.027344,0.011719 -0.013081,0.00327 -0.025981,0.00845 -0.039063,0.011719 -0.00958,0.00239 -0.018823,0.013495 -0.027344,0.015625 -0.010117,0.00253 -0.020914,0.00218 -0.03125,0.00391 -0.00795,-0.00136 -0.012655,0.00644 -0.019531,0.00781 -0.016776,0.00336 -0.03383,0.00148 -0.050781,0.00391 -0.00408,5.823e-4 -0.00766,0.00323 -0.011719,0.00391 -0.021798,0.00363 -0.048383,0 -0.070312,0 -0.015105,0 -0.0319,-0.00187 -0.046875,0 -0.00533,6.658e-4 -0.010289,0.00331 -0.015625,0.00391 -0.039222,0.00436 -0.081507,0 -0.1210938,0 -0.01231,0 -0.027247,0.00295 -0.039063,0 -0.00282,-7.062e-4 -0.00494,-0.00343 -0.00781,-0.00391 -0.038014,-0.00634 -0.078912,0.00478 -0.1171875,0 -0.02616,-0.00327 -0.01434,-0.00543 -0.042969,-0.00781 -0.00779,-6.488e-4 -0.015751,0.0014 -0.023437,0 -0.0069,-0.00125 -0.012729,-0.00611 -0.019531,-0.00781 -0.017518,-0.00438 -0.037219,-4.126e-4 -0.054687,-0.00391 -0.00181,-3.611e-4 -0.00212,-0.00346 -0.00391,-0.00391 -0.00379,-9.475e-4 -0.00789,7.66e-4 -0.011719,0 -0.00286,-5.711e-4 -0.00499,-0.0032 -0.00781,-0.00391 -0.00735,-0.00184 -0.016085,0.00184 -0.023437,0 -0.021932,-0.00548 -0.044184,-0.00928 -0.066406,-0.015625 -0.017646,-0.00504 -0.033664,-0.013825 -0.050781,-0.019531 -0.00247,-8.236e-4 -0.00534,8.235e-4 -0.00781,0 -0.00175,-5.824e-4 -0.00212,-0.00346 -0.00391,-0.00391 -0.00379,-9.474e-4 -0.00789,7.661e-4 -0.011719,0 -0.00938,-0.00188 -0.034876,-0.014675 -0.042969,-0.019531 -0.010541,-0.00632 -0.020769,-0.01645 -0.03125,-0.023437 -0.02466,-0.01644 -0.015625,-0.1183342 -0.015625,-0.1523438 0,-0.00783 0.00313,-0.024204 0,-0.03125 -0.00426,-0.00959 -0.010417,-0.018229 -0.015625,-0.027344 z"
     id="path65" />
  <path
     style="fill:#ffb6c1;fill-opacity:1"
     d="m 44.890625,6.75 c -0.07109,0.00449 -0.144583,-0.00887 -0.214844,0.00391 -0.01306,0.00238 -0.02673,0.00288 -0.03906,0.00781 -0.007,0.00282 -0.01259,0.00864 -0.01953,0.011719 -0.01129,0.00502 -0.02344,0.00781 -0.03516,0.011719 -0.02077,0.00692 -0.0469,0.00978 -0.06641,0.019531 -0.0033,0.00165 -0.0043,0.0068 -0.0078,0.00781 -0.0063,0.00179 -0.01318,-0.00141 -0.01953,0 -0.01235,0.00275 -0.04523,0.018981 -0.05859,0.023437 -0.0083,0.00278 -0.02639,0.00406 -0.03516,0.00781 -0.0043,0.00185 -0.0074,0.00596 -0.01172,0.00781 -0.0085,0.00366 -0.0162,0.00202 -0.02344,0.00781 -0.0043,0.00345 -0.0069,0.00898 -0.01172,0.011719 -0.0047,0.00266 -0.01069,0.00179 -0.01563,0.00391 -0.01465,0.00628 -0.02092,0.017017 -0.03125,0.027344 -0.0021,0.00206 -0.0058,0.00185 -0.0078,0.00391 -0.01514,0.015144 -0.02705,0.045388 -0.03125,0.066406 -0.0019,0.00939 -9.73e-4,0.02245 -0.0039,0.03125 -0.0015,0.00445 -0.0052,0.00781 -0.0078,0.011719 -0.0013,0.00651 -0.0026,0.013021 -0.0039,0.019531 -0.0033,0.01631 -0.0016,0.030898 -0.0039,0.046875 -0.0035,0.024549 -0.009,0.049393 -0.01172,0.074219 -0.0044,0.039662 -10e-4,0.085693 0.0039,0.125 0.0057,0.045429 0.0232,0.088985 0.03516,0.1328125 0.01445,0.052965 0.02504,0.1053133 0.04687,0.15625 0.0032,0.00757 0.0065,0.015314 0.0078,0.023437 6.42e-4,0.00385 -0.0015,0.00809 0,0.011719 0.0014,0.00342 0.0064,0.00439 0.0078,0.00781 0.0015,0.00363 -7.66e-4,0.00789 0,0.011719 0.0018,0.00902 0.0062,0.017866 0.0078,0.027344 0.0011,0.00642 -0.0021,0.013355 0,0.019531 0.0045,0.013498 0.0089,0.021298 0.01172,0.035156 0.0041,0.020368 0,0.045365 0,0.066406 0,0.048177 0,0.096354 0,0.1445312 0,0.03326 -0.0026,0.065054 0.01172,0.09375 0.0019,0.00388 0.0019,0.025371 0.0039,0.027344 9.21e-4,9.207e-4 0.0033,-0.00116 0.0039,0 0.0012,0.00233 -8.24e-4,0.00534 0,0.00781 0.0014,0.00428 0.0092,0.00792 0.01172,0.011719 0.01786,0.026787 -0.01763,-0.017628 0.01563,0.015625 0.0021,0.00206 0.0018,0.00575 0.0039,0.00781 0.0021,0.00206 0.0058,0.00185 0.0078,0.00391 9.21e-4,9.207e-4 -9.2e-4,0.00299 0,0.00391 9.21e-4,9.207e-4 0.0027,-4.118e-4 0.0039,0 0.01336,0.00445 0.0029,0.00324 0.01563,0.011719 0.0079,0.00526 0.01847,0.00448 0.02734,0.00781 0.0079,0.00295 0.01531,0.00969 0.02344,0.011719 0.02782,0.00696 -0.01979,-0.011822 0.01953,0.00391 0.0044,0.00174 0.0073,0.00633 0.01172,0.00781 0.0025,8.235e-4 0.0055,-0.00116 0.0078,0 0.0012,5.823e-4 -9.2e-4,0.00299 0,0.00391 0.0046,0.0046 0.01311,-0.00107 0.01953,0 0.03429,0.00571 -0.006,0.00144 0.01953,0.00781 0.0051,0.00126 0.01052,-0.00102 0.01563,0 0.01314,0.00263 0.02588,0.00561 0.03906,0.00781 0.0077,0.00128 0.01578,-0.00153 0.02344,0 0.0104,0.00208 0.02033,0.010159 0.03125,0.011719 0.0116,0.00166 0.02353,-0.00145 0.03516,0 0.01807,0.00226 0.03641,0.00943 0.05469,0.011719 0.01667,0.00208 0.03408,-0.00186 0.05078,0 0.02886,0.00321 0.05704,0.00883 0.08594,0.011719 0.0228,0.00228 0.04738,0 0.07031,0 0.01595,0 0.03503,0.00263 0.05078,0 0.0041,-6.769e-4 0.0076,-0.00332 0.01172,-0.00391 0.009,-0.00129 0.01835,0.0015 0.02734,0 0.0041,-6.77e-4 0.0076,-0.00332 0.01172,-0.00391 0.02169,-0.0031 0.04463,0.00242 0.06641,0 0.0053,-5.929e-4 0.0103,-0.00324 0.01563,-0.00391 0.01163,-0.00145 0.02351,0.00129 0.03516,0 0.04168,-0.00463 0.0835,-0.013603 0.125,-0.019531 0.01611,-0.0023 0.03523,0.00444 0.05078,0 0.0045,-0.00129 0.0073,-0.00633 0.01172,-0.00781 0.01138,-0.00379 0.02735,-9.768e-4 0.03906,-0.00391 0.0068,-0.0017 0.01269,-0.00629 0.01953,-0.00781 0.0051,-0.00113 0.01057,0.00126 0.01563,0 0.01543,-0.00386 0.03131,-0.015085 0.04687,-0.019531 0.02086,-0.00596 -0.0088,0.010246 0.01953,-0.00391 0.0042,-0.0021 0.0073,-0.00613 0.01172,-0.00781 0.03593,-0.01382 0.07943,-0.023435 0.105469,-0.054687 0.02802,-0.033626 0.04544,-0.074649 0.05469,-0.1171876 0.0019,-0.00891 -6.5e-4,-0.018252 0,-0.027344 0.0014,-0.019654 0.0044,-0.039189 0.0078,-0.058594 0.01739,-0.098564 0.02064,-0.2005682 0.01563,-0.3007812 -0.0034,-0.068136 -0.0032,-0.00222 -0.01172,-0.070312 -0.0011,-0.00904 6.07e-4,-0.018249 0,-0.027344 -0.0084,-0.126174 4.78e-4,0.044793 -0.0078,-0.054687 -0.0013,-0.015571 0.0013,-0.031304 0,-0.046875 -0.0027,-0.032435 -0.01378,-0.062125 -0.01953,-0.09375 -0.0073,-0.039998 -0.01042,-0.081594 -0.01953,-0.1210937 -8.78e-4,-0.00381 -0.01475,-0.043069 -0.01563,-0.046875 -0.0086,-0.03711 5.78e-4,-0.021416 -0.0078,-0.050781 -0.0053,-0.018592 -0.01451,-0.044651 -0.02344,-0.0625 -0.0034,-0.00679 -0.0089,-0.012482 -0.01172,-0.019531 -0.0025,-0.00616 -0.0016,-0.013315 -0.0039,-0.019531 -0.0049,-0.013105 -0.0298,-0.037613 -0.03906,-0.046875 -0.01598,-0.01598 -0.02432,-0.025502 -0.04297,-0.039063 -0.02261,-0.016444 -0.04855,-0.025283 -0.07422,-0.035156 -0.03769,-0.014495 -0.07314,-0.031536 -0.113281,-0.039063 -0.01159,-0.00217 -0.02359,-0.00159 -0.03516,-0.00391 -0.0081,-0.00162 -0.01531,-0.00646 -0.02344,-0.00781 -0.01541,-0.00257 -0.03131,0.00141 -0.04687,0 -0.01322,-0.0012 -0.02585,-0.00649 -0.03906,-0.00781 -0.02212,-0.00221 -0.04427,-0.00535 -0.06641,-0.00781 -0.03031,-0.00337 -0.06391,0.00597 -0.09375,0 -0.04979,-0.00996 -0.0691,-0.011693 -0.121094,0.00391 z"
     id="path66" />
  <path
     style="fill:#ffb6c1;fill-opacity:1"
     d="m 75.160156,6.8515625 c -0.0052,-0.0013 -0.01031,-0.00315 -0.01563,-0.00391 -0.0116,-0.00166 -0.02344,0 -0.03516,0 -0.04721,0 -0.09354,0.00222 -0.140625,0.00391 -0.05075,0.00181 -0.101575,0.00113 -0.152344,0 -0.07683,-0.00171 -0.153518,-0.011477 -0.230469,-0.00781 -0.07007,0.00334 -0.01605,0.00272 -0.08203,0.011719 -0.0312,0.00426 -0.0625,0.00781 -0.09375,0.011719 -0.003,3.715e-4 -0.06252,0.00421 -0.07422,0.00781 -0.0083,0.00257 -0.01537,0.00836 -0.02344,0.011719 -0.0076,0.00317 -0.01674,0.00303 -0.02344,0.00781 -0.0033,0.00239 -0.0013,0.0085 -0.0039,0.011719 -0.0029,0.00367 -0.0087,0.00421 -0.01172,0.00781 -0.03328,0.03994 -0.02344,0.132377 -0.02344,0.1796875 0,0.084659 -0.0015,0.1693469 0.0039,0.2539062 0.0096,0.150573 0.0037,0.016107 0.01953,0.1523438 0.0067,0.05797 0.0087,0.1141806 0.01172,0.171875 0.0022,0.041938 0.01215,0.083305 0.01563,0.125 0.0046,0.055185 0.01009,0.1241291 0.04297,0.1679687 0.0052,0.00687 0.0066,0.016563 0.01172,0.023437 0.005,0.00667 0.0097,0.013636 0.01563,0.019531 0.0021,0.00206 0.0058,0.00185 0.0078,0.00391 0.0033,0.00332 0.0045,0.0084 0.0078,0.011719 0.0021,0.00206 0.0058,0.00185 0.0078,0.00391 0.0071,0.00705 0.01156,0.020968 0.01953,0.027344 0.0032,0.00257 0.0088,9.947e-4 0.01172,0.00391 0.0018,0.00184 -0.0012,0.00548 0,0.00781 8.32e-4,0.00166 0.01613,0.00555 0.01953,0.00781 0.01089,0.00726 0.02077,0.015575 0.03125,0.023437 0.0066,0.00494 0.06693,0.032727 0.07422,0.035156 0.01401,0.00467 0.03253,-0.00359 0.04687,0 0.0056,0.00141 0.01,0.0064 0.01563,0.00781 0.0051,0.00126 0.01045,-5.752e-4 0.01563,0 0.01447,0.00161 0.02856,0.00575 0.04297,0.00781 0.03891,0.00556 0.0781,0.00911 0.117187,0.011719 0.03371,0.00225 0.06784,-0.00198 0.101563,0 0.01048,6.164e-4 0.02078,0.00316 0.03125,0.00391 0.04632,0.00331 0.09417,0 0.140625,0 0.02699,0 0.05513,0.00207 0.08203,0 0.03435,-0.00264 0.06731,-0.00829 0.101563,-0.011719 0.01278,-0.00128 0.02635,0.00182 0.03906,0 0.01063,-0.00152 0.02057,-0.00674 0.03125,-0.00781 0.0078,-7.774e-4 0.01573,0.00128 0.02344,0 0.0081,-0.00135 0.01531,-0.00646 0.02344,-0.00781 0.0077,-0.00128 0.01565,6.487e-4 0.02344,0 0.02368,-0.00197 0.05131,-0.00272 0.07422,-0.00781 0.03071,-0.00682 -0.0051,5.736e-4 0.01953,-0.011719 0.0048,-0.0024 0.01082,-0.00151 0.01563,-0.00391 0.01508,-0.00754 0.01331,-0.013152 0.02734,-0.019531 0.01762,-0.00801 0.03777,-0.010131 0.05469,-0.019531 0.0048,-0.00268 0.0076,-0.00808 0.01172,-0.011719 0.01888,-0.016522 0.04011,-0.029816 0.05859,-0.046875 0.03942,-0.036391 0.01524,-0.015977 0.04687,-0.050781 0.01551,-0.017066 0.0287,-0.024674 0.03906,-0.046875 0.0045,-0.00973 0.0042,-0.021125 0.0078,-0.03125 0.0043,-0.012093 0.01174,-0.022936 0.01563,-0.035156 0.01139,-0.035811 0.01663,-0.073353 0.02734,-0.109375 0.01937,-0.065156 0.04113,-0.1277361 0.05078,-0.1953125 0.01077,-0.075424 0.0077,-0.1510576 0.0039,-0.2265625 -0.0018,-0.036329 0.0031,-0.039274 -0.0039,-0.074219 -0.0029,-0.014558 -0.0083,-0.028517 -0.01172,-0.042969 -0.0027,-0.011464 -0.0043,-0.031198 -0.0078,-0.042969 -0.0022,-0.00719 -0.01826,-0.043565 -0.01953,-0.046875 -0.003,-0.00769 -0.0039,-0.016208 -0.0078,-0.023437 -0.004,-0.00732 -0.01158,-0.012243 -0.01563,-0.019531 -0.0026,-0.00469 -0.0015,-0.010823 -0.0039,-0.015625 -0.0088,-0.017506 -0.07691,-0.073665 -0.08984,-0.082031 -0.0098,-0.00633 -0.02114,-0.00985 -0.03125,-0.015625 -0.01986,-0.011346 -0.0377,-0.029775 -0.05859,-0.039063 -0.01769,-0.00786 -0.03695,-0.011773 -0.05469,-0.019531 -0.02887,-0.012629 -0.05619,-0.028245 -0.08594,-0.039063 -0.01548,-0.00563 -0.03077,-0.012174 -0.04687,-0.015625 -0.02224,-0.00476 -0.03082,-0.00183 -0.05078,-0.00781 -0.07516,-0.030064 0.02521,0.00728 -0.03516,-0.00781 -0.02945,-0.00736 -0.0017,-0.00903 -0.03125,-0.011719 -0.02796,-0.00254 -0.05781,0 -0.08594,0 -0.0115,0 -0.06179,-0.00461 -0.07031,0.00391 -0.0021,0.00206 -0.0015,0.0062 -0.0039,0.00781 -0.02896,0.019308 0.0077,-0.015494 -0.01172,0.00391"
     id="path67" />
  <path
     style="fill:#ffb6c1;fill-opacity:1"
     d="m 115.08594,6.6953125 c -0.009,0 -0.0183,-8.252e-4 -0.0273,0 -0.15382,0.013984 0.0631,0.00295 -0.15234,0.015625 -0.15345,0.00903 -0.30755,0.00947 -0.46094,0.019531 -0.0892,0.00585 -0.2572,0.022829 -0.32812,0.09375 -0.01,0.00996 -0.0163,0.023031 -0.0234,0.035156 -0.0456,0.077166 -0.0431,0.1268094 -0.0508,0.2148437 -0.008,0.093655 -0.01,0.093549 -0.0117,0.1914063 -0.002,0.07454 -0.008,0.1610773 0.008,0.234375 0.0104,0.048354 0.0554,0.1717231 0.0742,0.21875 0.01,0.023814 0.021,0.046815 0.0312,0.070312 0.008,0.01817 0.0142,0.037137 0.0234,0.054687 0.004,0.00738 0.011,0.012594 0.0156,0.019531 0.008,0.011589 0.0109,0.024027 0.0195,0.035156 0.0139,0.01793 0.0292,0.039971 0.0469,0.054687 0.0326,0.027192 -0.0108,-0.014705 0.0234,0.019531 0.0152,0.015235 0.03,0.033387 0.0469,0.046875 0.004,0.00293 0.008,0.00449 0.0117,0.00781 9.2e-4,9.207e-4 -9.2e-4,0.00299 0,0.00391 9.2e-4,9.207e-4 0.003,-7.223e-4 0.004,0 0.0142,0.00947 0.0259,0.021652 0.043,0.027344 0.004,0.00124 0.008,-0.00124 0.0117,0 0.006,0.00208 0.0246,0.012317 0.0312,0.015625 0.0189,0.00947 0.0384,0.019281 0.0586,0.027344 0.007,0.00281 0.0121,0.010229 0.0195,0.011719 0.004,7.66e-4 0.008,-0.00137 0.0117,0 0.007,0.00267 0.0124,0.00917 0.0195,0.011719 0.0113,0.00404 0.0237,0.00428 0.0352,0.00781 0.006,0.00171 0.0102,0.00577 0.0156,0.00781 0.0218,0.00818 0.0511,0.013314 0.0742,0.015625 0.0143,0.00143 0.0287,-0.00119 0.043,0 0.0314,0.00261 0.0624,0.0054 0.0937,0.00781 0.0532,0.0041 -0.008,0.00433 0.0508,0.00781 0.0324,0.00191 0.0653,-0.00231 0.0977,0 0.059,0.00422 0.12911,0.011677 0.1875,0 0.024,-0.00481 0.0469,-0.01316 0.0703,-0.019531 0.0153,-0.00417 0.0317,-0.00326 0.0469,-0.00781 0.006,-0.00167 0.01,-0.0064 0.0156,-0.00781 0.005,-0.00126 0.0106,0.00126 0.0156,0 0.006,-0.00141 0.01,-0.0064 0.0156,-0.00781 0.0299,-0.00749 0.0632,-0.012749 0.0937,-0.019531 0.0294,-0.00654 0.0533,-0.027307 0.082,-0.035156 0.008,-0.00208 0.0161,-8.6e-4 0.0234,-0.00391 0.0157,-0.00653 0.0275,-0.020319 0.043,-0.027344 0.007,-0.00341 0.0161,-0.00413 0.0234,-0.00781 0.0116,-0.00579 0.0413,-0.025634 0.0508,-0.035156 0.006,-0.00623 0.0241,-0.034596 0.0273,-0.039063 0.0186,-0.02607 0.0403,-0.053185 0.0547,-0.082031 0.0159,-0.031766 0.0223,-0.071437 0.0312,-0.1054687 0.007,-0.026293 0.0181,-0.051465 0.0234,-0.078125 0.008,-0.038657 0.008,-0.08182 0.008,-0.1210938 0,-0.056972 0.003,-0.1152308 -0.004,-0.171875 -0.01,-0.07353 -0.0274,-0.1473637 -0.0469,-0.21875 -0.007,-0.023835 -0.0172,-0.046421 -0.0234,-0.070312 -0.0155,-0.059098 9.6e-4,-0.021035 -0.0195,-0.085937 -0.0115,-0.036512 -0.0343,-0.084484 -0.0547,-0.1171875 -0.003,-0.00552 -0.009,-0.00968 -0.0117,-0.015625 -0.003,-0.00607 -0.002,-0.013315 -0.004,-0.019531 -0.0112,-0.029744 -0.0891,-0.1129998 -0.12109,-0.125 -0.004,-0.00137 -0.008,7.661e-4 -0.0117,0 -0.005,-9.745e-4 -0.0169,-0.010404 -0.0195,-0.011719 -0.0147,-0.00733 -0.0563,-0.013626 -0.0703,-0.015625 -0.0179,-0.00255 -0.0367,0.00199 -0.0547,0 -0.0234,-0.0026 -0.0467,-0.00584 -0.0703,-0.00781 -0.0252,-0.0021 -0.0779,0.00592 -0.10156,0 -0.0329,-0.00822 4.5e-4,-0.012638 -0.0547,-0.019531 z"
     id="path68" />
  <path
     style="fill:#ffd700;fill-opacity:1"
     d="m 15.59375,6.078125 c -0.01563,0 -0.0313,-0.0013 -0.04687,0 -0.123139,0.010262 -0.242492,0.020993 -0.367188,0.023437 -0.183682,0.0036 -0.16845,-0.00628 -0.328125,0.00781 -0.167713,0.014798 -0.333141,0.049011 -0.5,0.070312 -0.131954,0.016845 -0.258997,0.023956 -0.382812,0.078125 -0.03878,0.016965 -0.06557,0.049745 -0.101563,0.070312 -0.0071,0.00409 -0.01711,0.00254 -0.02344,0.00781 -0.08731,0.072757 -0.08594,0.2364411 -0.08594,0.3359375 0,0.1377103 -0.0043,0.1767866 0.03125,0.34375 0.017,0.079773 0.04848,0.1557858 0.07031,0.234375 0.01724,0.062073 0.03027,0.1252517 0.04687,0.1875 0.01465,0.054955 0.03507,0.1084246 0.04687,0.1640625 0.0065,0.030676 0.0045,0.06257 0.0078,0.09375 0.0045,0.041752 0.01145,0.083217 0.01563,0.125 0.0036,0.03637 0.0061,0.072865 0.0078,0.109375 0.0017,0.035934 -0.0072,0.081378 0,0.1171875 0.0041,0.020569 0.01151,0.041931 0.01563,0.0625 0.0052,0.026094 0.0014,0.052487 0.0078,0.078125 0.0072,0.028787 0.0253,0.056198 0.03125,0.085937 0.0063,0.031656 0.01736,0.050334 0.03125,0.078125 0.0031,0.00625 -0.0031,0.017188 0,0.023437 0.0157,0.031403 0.09675,0.090542 0.125,0.109375 0.0169,0.011268 0.02088,0.033238 0.03906,0.046875 0.01215,0.00911 0.0274,0.013716 0.03906,0.023437 0.0069,0.00572 0.01566,0.023473 0.02344,0.03125 0.04007,0.04007 0.08594,0.085941 0.132812,0.1171875 0.02395,0.015967 0.07294,0.027672 0.101563,0.03125 0.01809,0.00226 0.03671,-0.003 0.05469,0 0.120254,0.020042 0.252076,0.00781 0.375,0.00781 0.09426,0 0.18784,0.00257 0.28125,-0.00781 0.0078,-8.628e-4 0.01593,0.00215 0.02344,0 0.03075,-0.00879 0.06304,-0.028825 0.09375,-0.039063 0.01637,-0.00546 0.03278,-0.00505 0.04687,-0.015625 0.06058,-0.045436 0.131216,-0.076529 0.1875,-0.1328125 0.04299,-0.042992 0.02293,-0.034323 0.05469,-0.085937 0.03313,-0.053832 0.07267,-0.1039155 0.117188,-0.1484375 0.10943,-0.1094302 0.229936,-0.1799545 0.3125,-0.3203125 0.105183,-0.1788113 0.117187,-0.4610102 0.117187,-0.6640625 0,-0.113616 0.01916,-0.230275 0.0078,-0.34375 -0.0026,-0.026426 -0.01284,-0.051713 -0.01563,-0.078125 -0.0025,-0.023309 0.0025,-0.047004 0,-0.070312 -0.0072,-0.068334 -0.03118,-0.1364289 -0.04687,-0.203125 -0.0033,-0.013994 -0.025,-0.116143 -0.03125,-0.1328125 -0.01392,-0.037107 -0.04378,-0.082093 -0.0625,-0.1171875 -0.01918,-0.035966 -0.03071,-0.07641 -0.05469,-0.109375 -0.01083,-0.014892 -0.02667,-0.025437 -0.03906,-0.039063 -0.07931,-0.087244 -0.131506,-0.1484375 -0.25,-0.1484375"
     id="path69" />
  <path
     style="fill:#ffd700;fill-opacity:1"
     d="m 55.485785,6.2534756 c -0.166821,0.023832 0.01753,-0.00816 -0.165728,0.044194 -0.210333,0.060095 -0.07737,0.012635 -0.265165,0.066291 -0.107398,0.030685 -0.212939,0.069584 -0.320408,0.099437 -0.03272,0.00909 -0.06723,0.01136 -0.09944,0.022097 -0.02344,0.00781 -0.04285,0.025333 -0.06629,0.033146 -0.02125,0.00708 -0.04456,0.00562 -0.06629,0.011049 -0.06165,0.015411 -0.116396,0.048177 -0.176777,0.066291 -0.01748,0.00524 -0.0796,0.013596 -0.09944,0.022097 -0.04021,0.017234 -0.07635,0.051737 -0.110485,0.07734 -0.0093,0.00699 -0.02491,0.00281 -0.03315,0.011049 -0.01113,0.01113 -0.01504,0.033608 -0.0221,0.044194 -0.0058,0.00867 -0.01744,0.01278 -0.0221,0.022097 -0.0033,0.00659 0.0023,0.015109 0,0.022097 -0.0016,0.00494 -0.0094,0.00611 -0.01105,0.011049 -0.01636,0.049081 0.0042,0.1372558 0,0.1878252 -0.0084,0.1006328 -0.01105,0.1967643 -0.01105,0.2983107 0,0.044194 -0.01044,0.08964 0,0.1325825 0.01591,0.065413 0.148508,0.3985034 0.176777,0.4861359 0.03301,0.1023269 0.05431,0.2236139 0.06629,0.3314563 0.002,0.018302 -0.0082,0.038772 0,0.055243 0.0023,0.00466 0.0094,0.00611 0.01105,0.011049 0.0088,0.026455 -0.0068,0.06128 0,0.088388 0.0025,0.010106 0.0188,0.012215 0.0221,0.022097 0.0096,0.028913 0.0048,0.090213 0.01105,0.121534 0.0057,0.02835 0.05129,0.1407186 0.06629,0.1657281 0.03285,0.054745 0.09197,0.042326 0.143631,0.055243 0.0051,0.00126 0.0074,0.00737 0.01105,0.011048 0.01105,0.00368 0.02166,0.00913 0.03315,0.011049 0.0941,0.015684 0.19124,0.011049 0.287262,0.011049 0.05333,0 0.112964,0.00754 0.165728,0 0.0961,-0.013728 -9.57e-4,-0.011049 0.07734,-0.011049 0.102018,0 0.207696,-0.032032 0.29831,-0.07734 0.03369,-0.016847 -0.02021,-0.00876 0.03315,-0.022097 0.0071,-0.00179 0.01495,0.00179 0.0221,0 0.05091,-0.012727 0.249188,-0.1607994 0.287262,-0.1988737 0.01206,-0.012059 0.06831,-0.074842 0.07734,-0.088388 0.0091,-0.013704 0.01252,-0.030792 0.0221,-0.044194 0.0091,-0.012715 0.02616,-0.01917 0.03315,-0.033146 0.0084,-0.016796 0.0045,-0.03766 0.01105,-0.055243 0.0047,-0.012433 0.0167,-0.021011 0.0221,-0.033146 0.04207,-0.094664 0.07236,-0.1990167 0.09944,-0.2983107 0.0061,-0.022472 0.01856,-0.04327 0.0221,-0.066291 0.0039,-0.02548 -0.0016,-0.05161 0,-0.07734 0.0042,-0.066569 0.01818,-0.1322896 0.0221,-0.1988738 0.0084,-0.1436307 -0.0026,-0.288008 -0.01105,-0.4308931 -0.0017,-0.029412 0.0037,-0.059153 0,-0.088388 -0.0091,-0.072635 -0.04917,-0.1370705 -0.05524,-0.2099223 -0.0021,-0.025691 0.0063,-0.05233 0,-0.07734 -0.0052,-0.020833 -0.02354,-0.036035 -0.03315,-0.055243 -0.0074,-0.018414 -0.01473,-0.036829 -0.0221,-0.055243 0,-0.014731 0.0052,-0.030401 0,-0.044194 -0.01127,-0.030067 -0.03603,-0.043879 -0.05524,-0.066291 -0.01473,-0.018414 -0.02946,-0.036829 -0.04419,-0.055243 -0.0037,-0.011049 -0.0043,-0.023669 -0.01105,-0.033146 -0.0048,-0.00668 -0.06731,-0.065882 -0.07734,-0.07734 -0.02395,-0.02737 -0.05514,-0.077269 -0.08839,-0.099437 -0.0069,-0.00457 -0.01627,-0.00523 -0.0221,-0.011049 -0.0082,-0.00824 -0.0028,-0.02491 -0.01105,-0.033146 -0.0026,-0.0026 -0.0084,0.0026 -0.01105,0 -0.0026,-0.0026 0.0026,-0.00844 0,-0.011049 -0.0052,-0.00521 -0.01551,0.00329 -0.0221,0 -0.0047,-0.00233 -0.0059,-0.011694 -0.01105,-0.011049 -0.0266,0.00333 -0.05156,0.014731 -0.07734,0.022097 z"
     id="path70" />
  <path
     style="fill:#ffd700;fill-opacity:1"
     d="M 54.61295,5.6789513 53.883746,6.7064659"
     id="path71" />
  <path
     style="fill:#ffd700;fill-opacity:1"
     d="m 53.994232,6.6180775 0.508233,0.4087961"
     id="path72" />
  <path
     style="fill:#ffd700;fill-opacity:1"
     d="m 54.778678,6.3087183 c -0.02251,-0.018005 -0.066,-0.059126 -0.09944,-0.066291 -0.07335,-0.015718 -0.280026,-0.037853 -0.353554,-0.022097 -0.09988,0.021403 -0.283892,0.1330511 -0.342505,0.2209708 -0.02781,0.04171 -0.01105,0.1298245 -0.01105,0.1767767 0,0.042837 -0.0043,0.080515 0.01105,0.121534 0.01305,0.034804 0.06625,0.086163 0.09944,0.099437 0.0208,0.00832 0.04483,0.00461 0.06629,0.011048 0.04051,0.012154 0.03854,0.027603 0.07734,0.033146 0.04939,0.00706 0.198283,0.00995 0.243068,0 0.03648,-0.00811 0.176192,-0.1500222 0.198874,-0.1878253 0.01598,-0.026627 0.0273,-0.059157 0.03315,-0.088388 0.0056,-0.028049 -0.0069,-0.060666 0,-0.088388 0.0056,-0.022345 0.02342,-0.06364 0.01105,-0.088388 -0.007,-0.013975 -0.0282,-0.018323 -0.03314,-0.033146 -0.0056,-0.016675 0,-0.04806 0,-0.066291"
     id="path73" />
  <path
     style="fill:#ffd700;fill-opacity:1"
     d="M 85.875,6.125 C 85.702777,6.12251 85.531807,6.109375 85.359375,6.109375 c -0.02344,0 -0.04706,-0.00291 -0.07031,0 -0.01881,0.00235 -0.0361,0.011907 -0.05469,0.015625 -0.02059,0.00412 -0.04197,0.00341 -0.0625,0.00781 -0.0161,0.00345 -0.0306,0.013121 -0.04687,0.015625 -0.01802,0.00277 -0.03667,-0.00277 -0.05469,0 -0.01628,0.0025 -0.03067,0.012679 -0.04687,0.015625 -0.01281,0.00233 -0.02609,-0.00118 -0.03906,0 -0.03571,0.00325 -0.07665,0.016706 -0.109375,0.03125 -0.01388,0.00617 -0.02519,0.01727 -0.03906,0.023437 -0.02908,0.012926 -0.07541,0.020379 -0.101562,0.039063 -0.01199,0.00856 -0.01926,0.022687 -0.03125,0.03125 -0.0067,0.00479 -0.01674,0.00303 -0.02344,0.00781 -0.01199,0.00856 -0.01876,0.023442 -0.03125,0.03125 -0.0091,0.00569 -0.02165,0.00301 -0.03125,0.00781 -0.0066,0.00329 -0.0095,0.011539 -0.01563,0.015625 -0.0097,0.00646 -0.02137,0.00945 -0.03125,0.015625 -0.02316,0.0039 -0.02995,0.02778 -0.04687,0.039063 -0.03729,0.024858 -0.02324,0.00871 -0.0625,0.023437 -0.118867,0.044575 -0.202091,0.1297118 -0.242187,0.25 -0.0068,0.020372 -0.0088,0.042128 -0.01563,0.0625 -0.0044,0.013304 -0.01312,0.025265 -0.01563,0.039063 -0.0028,0.015373 0.0028,0.031502 0,0.046875 -0.0025,0.013798 -0.01332,0.025229 -0.01563,0.039063 -0.003,0.017981 0.0028,0.03667 0,0.054687 -0.0025,0.016279 -0.01239,0.030725 -0.01563,0.046875 -0.01843,0.092161 -0.0078,0.1960286 -0.0078,0.2890625 0,0.1401052 -0.0064,0.281925 0,0.421875 0.0073,0.1616611 0.0068,0.014522 0.01563,0.15625 0.0034,0.054678 0.0039,0.1094302 0.0078,0.1640625 0.0036,0.049969 0.01725,0.09895 0.02344,0.1484375 9.69e-4,0.00775 -0.0019,0.015858 0,0.023437 8.94e-4,0.00357 0.0071,0.0042 0.0078,0.00781 0.0059,0.029735 -0.0043,0.063771 0,0.09375 8.23e-4,0.00576 0.0067,0.00991 0.0078,0.015625 0.0031,0.015322 -0.0038,0.031716 0,0.046875 8.94e-4,0.00357 0.0066,0.00432 0.0078,0.00781 0.0047,0.013962 0,0.04025 0,0.054687 0,0.05822 1.61e-4,0.1564435 0.03906,0.203125 0.02013,0.024154 0.05217,0.05866 0.07813,0.078125 0.01307,0.0098 0.0361,0.012662 0.04687,0.023437 0.0041,0.00412 0.0032,0.012131 0.0078,0.015625 0.02517,0.018877 0.09487,0.011859 0.125,0.015625 0.02597,0.00325 0.05231,0.00351 0.07813,0.00781 0.0036,6.055e-4 0.0043,0.00665 0.0078,0.00781 0.03868,0.012893 0.153326,-0.0083 0.203125,0 0.0265,0.00442 0.05276,0.00928 0.07813,0.015625 0.02663,0.00666 0.05863,-0.00341 0.08594,0 0.02319,-0.00425 0.04132,0.012095 0.0625,0.015625 0.02931,0.00489 0.140077,0.006 0.164062,0 0.02093,-0.00523 0.04054,-0.019777 0.0625,-0.023437 0.02434,-0.00406 0.04659,-0.00969 0.07031,-0.015625 0.0051,-0.00126 0.01042,0 0.01563,0 0.0078,0 0.01586,0.00189 0.02344,0 0.0036,-8.932e-4 0.0045,-0.00617 0.0078,-0.00781 0.01108,-0.00554 0.04184,-0.013483 0.05469,-0.015625 0.02827,-0.00471 0.06109,-0.0048 0.08594,-0.023437 0.0059,-0.00442 0.0093,-0.011835 0.01563,-0.015625 0.02156,-0.012935 0.04317,-0.01192 0.0625,-0.03125 0.0066,-0.00664 0.0096,-0.016224 0.01563,-0.023437 0.0071,-0.00849 0.01731,-0.014245 0.02344,-0.023437 0.0046,-0.00685 0.0037,-0.016287 0.0078,-0.023437 0.0065,-0.011305 0.01654,-0.020208 0.02344,-0.03125 0.03534,-0.056541 0.06258,-0.1173962 0.08594,-0.1796875 0.04752,-0.126728 0.0947,-0.2532229 0.132812,-0.3828125 0.02086,-0.070928 0.05127,-0.1395113 0.07031,-0.2109375 0.02596,-0.097342 0.03555,-0.1998527 0.0625,-0.296875 0.006,-0.021438 0.0177,-0.041001 0.02344,-0.0625 0.0095,-0.035585 0.0079,-0.073364 0.01563,-0.109375 0.03097,-0.1445066 0.0065,0.025915 0.01563,-0.1015625 0.0036,-0.049957 0.01014,-0.09903 0.01563,-0.1484375 0.0026,-0.023294 -0.0021,-0.046971 0,-0.070312 C 86.0942,6.892677 86.11971,6.8042311 86.10934,6.7109245 86.10414,6.6639965 86.08321,6.5570913 86.06247,6.515612 86.04647,6.483621 86.033,6.455437 86.02341,6.421862 86.02051,6.411683 86.01005,6.324822 86.00778,6.3202995 c -0.0058,-0.011652 -0.01748,-0.019332 -0.02344,-0.03125 -0.0065,-0.013053 -0.0043,-0.032855 -0.0078,-0.046875 -0.01315,-0.052623 -1.2e-4,-1.207e-4 -0.01563,-0.015625 -0.0045,-0.00454 -0.0045,-0.024685 -0.0078,-0.03125 -0.0016,-0.00329 -0.0066,-0.00432 -0.0078,-0.00781 -0.0035,-0.010635 -0.0019,-0.039989 -0.01563,-0.046875 C 85.91273,6.1321464 85.893229,6.1302083 85.875,6.125 Z"
     id="path74" />
  <path
     style="fill:#a9a9a9;fill-opacity:1"
     d="m 35.156465,6.78933 c -0.0603,-0.012681 -0.121682,-0.00276 -0.182301,0 -0.02023,9.197e-4 -0.04059,-0.00183 -0.06077,0 -0.0205,0.00186 -0.04032,0.00869 -0.06077,0.011049 -0.04738,0.01308 -0.09593,9.817e-4 -0.143631,0.00552 -0.06009,0.00572 -0.117338,0.029526 -0.176776,0.03867 -0.02506,0.011039 -0.05175,0.00187 -0.07734,0.00552 -0.04328,0.00618 -0.137495,0.026643 -0.165728,0.071816 -0.004,0.00644 -0.0034,0.014797 -0.0055,0.022097 -0.0032,0.011198 -0.0088,0.021726 -0.01105,0.033146 -0.0031,0.015699 0.0018,0.033865 0,0.049718 -0.01,0.089912 -0.01234,0.1868894 0.0055,0.2762136 0.0022,0.010989 0.01756,0.070391 0.0221,0.082864 0.0028,0.00774 0.0091,0.014108 0.01105,0.022097 0.0036,0.014291 -0.0021,0.029611 0,0.044194 8.23e-4,0.00576 0.0047,0.010808 0.0055,0.016573 0.0041,0.028772 -0.0026,0.059444 0,0.088388 0.003,0.033376 0.01324,0.066087 0.01657,0.099437 0.0015,0.014658 -0.0021,0.029611 0,0.044194 0.0016,0.011529 0.0088,0.021726 0.01105,0.033146 0.0039,0.01946 -0.0028,0.041097 0,0.060767 0.0027,0.018955 0.0073,0.036725 0.01105,0.055243 0.0034,0.017069 0,0.037806 0,0.055243 0,0.00896 -0.0028,0.024703 0,0.033146 8.23e-4,0.00247 0.0047,0.00305 0.0055,0.00552 0.0027,0.00809 -0.0021,0.01934 0,0.027621 0.0049,0.01959 0.02308,0.043986 0.03315,0.060767 0.006,0.00994 0.02048,0.011809 0.02762,0.016573 0.01048,0.00699 0.01754,0.020062 0.02762,0.027621 0.01691,0.012678 0.06757,0.028981 0.08839,0.033146 0.05449,0.010898 0.110879,0.010478 0.165728,0.016573 0.0218,0.00242 0.04453,-0.00272 0.06629,0 0.0075,9.417e-4 0.01456,0.00458 0.0221,0.00552 0.01808,0.00226 0.03721,-0.00258 0.05524,0 0.0058,8.235e-4 0.01081,0.0047 0.01657,0.00552 0.02327,0.00332 0.04838,-0.0018 0.07182,0 0.05211,0.00401 0.10227,0.00552 0.15468,0.00552 0.02136,0 0.04511,0.00265 0.06629,0 0.02576,-0.00322 0.05192,-0.013396 0.07734,-0.016573 0.0091,-0.00114 0.01851,0.0013 0.02762,0 0.01418,-0.00203 0.03001,-0.0148 0.0442,-0.016573 0.0274,-0.00343 0.05546,-0.0021 0.08286,-0.00552 0.01664,-0.00208 0.03342,-0.012498 0.04972,-0.016573 0.02647,-0.00662 0.05735,-0.00701 0.08286,-0.016573 0.0062,-0.00233 0.01041,-0.00858 0.01657,-0.011049 0.0034,-0.00137 0.008,0.00204 0.01105,0 0.0034,-0.00228 0.0031,-0.00775 0.0055,-0.011048 0.0093,-0.012372 0.02348,-0.021064 0.03315,-0.033146 0.01653,-0.020665 0.03021,-0.043919 0.04419,-0.066291 0.01,-0.016007 0.02572,-0.032402 0.03315,-0.049718 0.003,-0.00698 0.0037,-0.014731 0.0055,-0.022097 0.0037,-0.00921 0.007,-0.01856 0.01105,-0.027621 0.0033,-0.00753 0.0087,-0.014209 0.01105,-0.022097 0.0061,-0.020392 0.0049,-0.040375 0.01105,-0.060767 0.01512,-0.050392 0.0058,-0.00619 0.0221,-0.049718 0.0091,-0.024268 0.01098,-0.052159 0.01657,-0.07734 0.0089,-0.039919 0.02355,-0.080782 0.02762,-0.121534 0.0016,-0.01649 -0.003,-0.033413 0,-0.049718 0.0024,-0.01319 0.0087,-0.02548 0.01105,-0.03867 0.0042,-0.02322 0.0032,-0.048295 0.0055,-0.071816 0.0022,-0.022328 0.0086,-0.044174 0.01105,-0.066291 0.0028,-0.025356 -0.0036,-0.052092 0,-0.07734 0.0057,-0.039676 0.01346,-0.083572 -0.0055,-0.121534 -0.01263,-0.025266 -0.04097,-0.063063 -0.06077,-0.082864 -0.01202,-0.012021 -0.03217,-0.021124 -0.0442,-0.033146 -0.0029,-0.00291 -0.0026,-0.00814 -0.0055,-0.011049 -0.01594,-0.015943 -0.05619,-0.028093 -0.07734,-0.03867 -0.01188,-0.00594 -0.02094,-0.016866 -0.03315,-0.022097 -0.0079,-0.0034 -0.04343,-0.00948 -0.04972,-0.011049 -0.01976,-0.00494 -0.0364,-0.015818 -0.05524,-0.022097 -0.03143,-0.010477 -0.01207,-4.083e-4 -0.03867,-0.011049 -0.03825,-0.015301 -0.07187,-0.04237 -0.110486,-0.055243 -0.0063,-0.0021 -0.01013,-0.00944 -0.01657,-0.011049 -0.0054,-0.00134 -0.01121,0.00134 -0.01657,0 -0.0051,-0.00126 -0.0061,-0.0094 -0.01105,-0.011048 -0.0035,-0.00116 -0.0075,8.932e-4 -0.01105,0 -0.01936,-0.00484 -0.04333,-0.026778 -0.06629,-0.016573 -0.01357,0.00603 -0.02578,0.014731 -0.03867,0.022097 z"
     id="path75" />
  <path
     style="fill:#a9a9a9;fill-opacity:1"
     d="m 95.132812,6.6132812 c -0.01823,0 -0.03647,-6.746e-4 -0.05469,0 -0.05104,0.00189 -0.101152,0.00391 -0.152344,0.00391 -0.02771,0 -0.08321,-0.00113 -0.109375,0.00391 -0.02969,0.00571 -0.05509,0.023033 -0.08203,0.035156 -0.03439,0.015475 -0.06788,0.030034 -0.101563,0.046875 -0.0063,0.00314 -0.01347,0.00428 -0.01953,0.00781 -0.03493,0.020373 -0.08212,0.059176 -0.109375,0.089844 -0.0087,0.00973 -0.01423,0.022043 -0.02344,0.03125 -0.0021,0.00206 -0.006,0.00163 -0.0078,0.00391 -0.0073,0.00909 -0.0095,0.021374 -0.01563,0.03125 -0.0099,0.015847 -0.02192,0.03055 -0.03125,0.046875 -0.01677,0.029356 -0.03372,0.061391 -0.04297,0.09375 -0.01265,0.044266 -0.01098,0.1314917 -0.0078,0.1757812 0.0014,0.019654 0.0061,0.038964 0.0078,0.058594 0.0031,0.036171 0.0023,0.07309 0.0039,0.109375 5.19e-4,0.011426 0.0067,0.076923 0.0078,0.089844 0.0055,0.063758 0.0039,0.1274282 0.0039,0.1914063 0,0.033854 0.0016,0.067747 0,0.1015625 -0.0014,0.030048 -0.0041,0.060311 -0.0078,0.089844 -0.0033,0.026486 0,0.055272 0,0.082031 0,0.013349 -0.0022,0.030063 0,0.042969 3.03e-4,0.00182 0.0035,0.00212 0.0039,0.00391 0.0036,0.014361 4.43e-4,0.029116 0.0039,0.042969 4.47e-4,0.00179 0.0033,0.00216 0.0039,0.00391 0.0026,0.00793 -0.002,0.019317 0,0.027344 0.0029,0.011669 0.03146,0.03639 0.04297,0.042969 0.03057,0.017471 0.0084,0.00324 0.03125,0.00781 0.01687,0.00337 0.04392,0.021008 0.0625,0.011719 0.01074,-0.00537 0.01645,-0.018407 0.02734,-0.023437 0.0164,-0.00757 0.06415,0.00456 0.08203,0.00781 0.02093,0.0038 0.04211,1.984e-4 0.0625,0.00391 0.0069,0.00125 0.01263,0.00656 0.01953,0.00781 0.01537,0.0028 0.03141,-0.00221 0.04687,0 0.02485,0.00355 0.04557,0.017057 0.07031,0.019531 0.05956,0.00596 0.119994,0.00674 0.179688,0.011719 0.01557,0.0013 0.03128,-0.00104 0.04687,0 0.05219,0.00348 0.103863,0.00391 0.15625,0.00391 0.02163,0 0.04488,0.00196 0.06641,0 0.03296,-0.003 0.0625,-0.01451 0.09375,-0.023437 0.01337,-0.00382 0.03073,-0.00473 0.04297,-0.011719 0.0057,-0.00323 0.0098,-0.00881 0.01563,-0.011719 0.01502,-0.00751 0.03474,-0.010277 0.05078,-0.015625 0.0287,-0.00957 0.0458,-0.026628 0.07031,-0.042969 0.0189,-0.012597 0.0316,-0.020393 0.04687,-0.039063 0.02152,-0.026306 0.02103,-0.03185 0.03906,-0.0625 0.01714,-0.029133 0.02216,-0.031634 0.03516,-0.0625 0.01261,-0.029954 0.02014,-0.059303 0.03125,-0.089844 0.0048,-0.01318 0.01184,-0.025558 0.01563,-0.039063 0.0054,-0.01918 0.0071,-0.039226 0.01172,-0.058594 0.01064,-0.044332 0.02732,-0.087741 0.03516,-0.1328125 0.0025,-0.014169 0.0017,-0.028754 0.0039,-0.042969 0.003,-0.019686 0.0091,-0.03885 0.01172,-0.058594 0.01198,-0.089862 0.01328,-0.1924782 -0.0039,-0.28125 -0.0019,-0.00974 -0.0082,-0.018059 -0.01172,-0.027344 -0.01924,-0.051298 -0.0034,-0.022362 -0.03125,-0.078125 -0.03132,-0.062636 -0.08249,-0.1090746 -0.132812,-0.15625 -0.02879,-0.026992 -0.01664,-0.019711 -0.04687,-0.042969 -0.05339,-0.041068 -0.0012,4.919e-4 -0.05469,-0.035156 -0.01083,-0.00722 -0.02008,-0.016738 -0.03125,-0.023437 -0.0085,-0.0051 -0.0189,-0.00652 -0.02734,-0.011719 -0.113009,-0.069544 0.06582,0.027052 -0.05078,-0.03125 -0.03391,-0.016953 -0.06906,-0.035184 -0.101562,-0.054687 -0.0071,-0.00429 -0.01207,-0.011896 -0.01953,-0.015625 -0.0023,-0.00116 -0.0052,0 -0.0078,0 -0.0052,-0.0026 -0.01078,-0.00458 -0.01563,-0.00781 -0.0043,-0.00287 -0.0075,-0.014206 -0.01172,-0.015625 -0.0025,-8.235e-4 -0.0053,6.316e-4 -0.0078,0 -0.02438,-0.00609 -0.05153,-0.027558 -0.07813,-0.035156 -0.01127,-0.00322 -0.02344,0 -0.03516,0 z"
     id="path76" />
</svg>
